<svg xmlns="http://www.w3.org/2000/svg" viewBox="0 0 380 380" role="img" aria-label="Salvia rosmarinus">
    <defs><linearGradient id="bg" x1="0" y1="0" x2="1" y2="1"><stop offset="0" stop-color="#fbfaf5"/><stop offset="1" stop-color="#e8eadf"/></linearGradient></defs>
    <rect width="380" height="380" rx="28" fill="url(#bg)"/>
    <circle cx="300" cy="75" r="52" fill="#dfe7d7" opacity=".7"/>
    <ellipse cx="190" cy="315" rx="105" ry="18" fill="#d1d4c8"/>
    <path d="M130 255 L250 255 L238 330 Q190 345 142 330Z" fill="#c9a889"/>
    <path d="M140 265 L240 265 L232 286 Q190 295 148 286Z" fill="#70543d"/>
    
        <path d="M190 300 C185 235 192 150 205 80" stroke="#31543a" stroke-width="8" fill="none"/>
        <path d="M202 105 C150 105 125 80 120 55 M198 135 C245 130 270 100 274 72 M195 175 C150 165 125 140 112 112 M190 205 C230 190 252 166 264 140" stroke="#527554" stroke-width="7" fill="none"/>
        <g stroke="#6f9b68" stroke-width="7" stroke-linecap="round">
          <path d="M143 83 l-22 -15 M151 101 l-26 -5 M237 105 l24 -18 M229 123 l28 -4 M142 151 l-27 -14 M225 170 l28 -16"/>
        </g>
        
    <text x="190" y="365" text-anchor="middle" font-family="Georgia, serif" font-size="15" fill="#31543a">Salvia rosmarinus</text>
    </svg>